<svg width="156" height="156" viewBox="0 0 156 156" fill="none" xmlns="http://www.w3.org/2000/svg">
<g filter="url(#filter0_d_26_147)">
<path d="M77.4713 109.091C97.2059 109.091 113.204 93.1125 113.204 73.4018C113.204 53.6911 97.2059 37.7124 77.4713 37.7124C57.7367 37.7124 41.7386 53.6911 41.7386 73.4018C41.7386 93.1125 57.7367 109.091 77.4713 109.091Z" stroke="#0BC21D" stroke-width="8"/>
<path d="M77.6475 79.9753C81.185 79.9753 84.0528 77.111 84.0528 73.5777C84.0528 70.0445 81.185 67.1802 77.6475 67.1802C74.1099 67.1802 71.2422 70.0445 71.2422 73.5777C71.2422 77.111 74.1099 79.9753 77.6475 79.9753Z" fill="#0BC21D"/>
<path d="M20 73.6947C20 71.2438 21.9894 69.2571 24.4434 69.2571H28.8869H37.7738H42.2172H46.6607H51.1041C53.5581 69.2571 55.5475 71.2438 55.5475 73.6947C55.5475 76.1461 53.5581 78.1329 51.1041 78.1329H24.4434C21.9894 78.1329 20 76.1461 20 73.6947Z" fill="#0BC21D"/>
<path d="M131.086 69.2571H104.425C101.971 69.2571 99.9818 71.2441 99.9818 73.6951V73.6952C99.9818 76.1462 101.971 78.1332 104.425 78.1332H131.086C133.54 78.1332 135.529 76.1462 135.529 73.6951C135.529 71.2441 133.54 69.2571 131.086 69.2571Z" fill="#0BC21D"/>
<path d="M73.3216 100.323V126.952C73.3216 129.403 75.311 131.39 77.765 131.39H77.765C80.2191 131.39 82.2085 129.403 82.2085 126.952V100.323C82.2085 97.8724 80.2191 95.8854 77.765 95.8854C75.311 95.8854 73.3216 97.8724 73.3216 100.323Z" fill="#0BC21D"/>
<path d="M73.3216 20.4379V47.0663C73.3216 49.5174 75.311 51.5044 77.765 51.5044H77.765C80.2191 51.5044 82.2085 49.5174 82.2085 47.0663V20.4379C82.2085 17.9869 80.2191 15.9999 77.765 15.9999C75.311 15.9999 73.3216 17.9869 73.3216 20.4379Z" fill="#0BC21D"/>
</g>
<defs>
<filter id="filter0_d_26_147" x="0" y="0" width="155.529" height="155.39" filterUnits="userSpaceOnUse" color-interpolation-filters="sRGB">
<feFlood flood-opacity="0" result="BackgroundImageFix"/>
<feColorMatrix in="SourceAlpha" type="matrix" values="0 0 0 0 0 0 0 0 0 0 0 0 0 0 0 0 0 0 127 0" result="hardAlpha"/>
<feOffset dy="4"/>
<feGaussianBlur stdDeviation="10"/>
<feComposite in2="hardAlpha" operator="out"/>
<feColorMatrix type="matrix" values="0 0 0 0 0.0431373 0 0 0 0 0.760784 0 0 0 0 0.113725 0 0 0 0.5 0"/>
<feBlend mode="normal" in2="BackgroundImageFix" result="effect1_dropShadow_26_147"/>
<feBlend mode="normal" in="SourceGraphic" in2="effect1_dropShadow_26_147" result="shape"/>
</filter>
</defs>
</svg>
