<svg width="14" height="18" viewBox="0 0 14 18" fill="none" xmlns="http://www.w3.org/2000/svg">
<path fill-rule="evenodd" clip-rule="evenodd" d="M2.75 1.49997C2.05964 1.49997 1.5 2.05961 1.5 2.74997V15.25C1.5 15.9403 2.05964 16.5 2.75 16.5H11.25C11.9404 16.5 12.5 15.9403 12.5 15.25V6.0784C12.5 5.74688 12.3683 5.42893 12.1339 5.19451L8.80546 1.86609C8.57104 1.63167 8.25309 1.49997 7.92157 1.49997H2.75ZM0 2.74997C0 1.23119 1.23122 -3.05176e-05 2.75 -3.05176e-05H7.92157C8.65092 -3.05176e-05 9.35039 0.289701 9.86612 0.805426L13.1945 4.13385C13.7103 4.64958 14 5.34905 14 6.0784V15.25C14 16.7688 12.7688 18 11.25 18H2.75C1.23122 18 0 16.7688 0 15.25V2.74997ZM3 7.24707C3 6.83286 3.33579 6.49707 3.75 6.49707H10.25C10.6642 6.49707 11 6.83286 11 7.24707C11 7.66128 10.6642 7.99707 10.25 7.99707H3.75C3.33579 7.99707 3 7.66128 3 7.24707ZM3 10.2471C3 9.83286 3.33579 9.49707 3.75 9.49707H10.25C10.6642 9.49707 11 9.83286 11 10.2471C11 10.6613 10.6642 10.9971 10.25 10.9971H3.75C3.33579 10.9971 3 10.6613 3 10.2471ZM3 13.2471C3 12.8329 3.33579 12.4971 3.75 12.4971H7.19118C7.60539 12.4971 7.94118 12.8329 7.94118 13.2471C7.94118 13.6613 7.60539 13.9971 7.19118 13.9971H3.75C3.33579 13.9971 3 13.6613 3 13.2471Z" fill="#0F006A"/>
</svg>
