<svg width="12" height="12" viewBox="0 0 12 12" fill="none" xmlns="http://www.w3.org/2000/svg">
<path fill="#0F006A" fill-rule="evenodd" clip-rule="evenodd" d="M0.71967 0.71967C1.01256 0.426777 1.48744 0.426777 1.78033 0.71967L6 4.93934L10.2197 0.71967C10.5126 0.426777 10.9874 0.426777 11.2803 0.71967C11.5732 1.01256 11.5732 1.48744 11.2803 1.78033L7.06066 6L11.2803 10.2197C11.5732 10.5126 11.5732 10.9874 11.2803 11.2803C10.9874 11.5732 10.5126 11.5732 10.2197 11.2803L6 7.06066L1.78033 11.2803C1.48744 11.5732 1.01256 11.5732 0.71967 11.2803C0.426777 10.9874 0.426777 10.5126 0.71967 10.2197L4.93934 6L0.71967 1.78033C0.426777 1.48744 0.426777 1.01256 0.71967 0.71967Z"/>
</svg>
