<svg width="14" height="18" viewBox="0 0 14 18" fill="none" xmlns="http://www.w3.org/2000/svg">
<path fill-rule="evenodd" clip-rule="evenodd" d="M6.46967 0.969639C6.76256 0.676746 7.23744 0.676746 7.53033 0.969639L10.2803 3.71964C10.5732 4.01253 10.5732 4.48741 10.2803 4.7803L10.1234 4.93722C10.0679 5.02039 9.99743 5.08978 9.91732 5.14331L7.53033 7.5303C7.23744 7.82319 6.76256 7.82319 6.46967 7.5303C6.17678 7.23741 6.17678 6.76253 6.46967 6.46964L8.08291 4.8564C7.73311 4.78661 7.37106 4.74997 7 4.74997C3.96243 4.74997 1.5 7.2124 1.5 10.25C1.5 13.2875 3.96243 15.75 7 15.75C10.0376 15.75 12.5 13.2875 12.5 10.25C12.5 9.83576 12.8358 9.49997 13.25 9.49997C13.6642 9.49997 14 9.83576 14 10.25C14 14.116 10.866 17.25 7 17.25C3.13401 17.25 0 14.116 0 10.25C0 6.38398 3.13401 3.24997 7 3.24997C7.24526 3.24997 7.4877 3.26261 7.72666 3.28729L6.46967 2.0303C6.17678 1.73741 6.17678 1.26253 6.46967 0.969639Z" fill="#0F006A"/>
</svg>
